<svg xmlns="http://www.w3.org/2000/svg" width="8.11111in" height="0.93056in" viewBox="0 0 584 67"><defs><style>.a{fill:#fff;}</style></defs><title>Artboard 1</title><path class="a" d="M80.32227,17.18389H87.6782l14.43307,22.85958V17.18389h6.47151v33.987h-6.89056l-14.89845-23.605v23.605H80.32227Z"/><path class="a" d="M113.37679,34.17717a17.38931,17.38931,0,1,1,17.366,17.45908A17.3863,17.3863,0,0,1,113.37679,34.17717Zm28.35359,0A10.965,10.965,0,1,0,130.7428,45.25782,11.02764,11.02764,0,0,0,141.73038,34.17717Z"/><path class="a" d="M148.43393,17.18389h6.704l7.91481,24.11674,7.91481-24.11674h6.70441l-11.35988,33.987h-6.51826Z"/><path class="a" d="M182.37288,17.18389h20.15955v6.19185h-13.688v7.63559h13.688v6.19228h-13.688v7.775h13.688v6.19228H182.37288Z"/><path class="a" d="M216.40577,23.37574h-9.03214V17.18389h24.53579v6.19185h-9.03214V51.17088h-6.47151Z"/><path class="a" d="M244.52474,23.37574h-9.03214V17.18389h24.53579v6.19185h-9.03214V51.17088h-6.47151Z"/><path class="a" d="M270.17743,17.18389h6.51826l12.05816,33.987h-6.75073l-2.04851-5.91306H266.91852L264.87,51.17088h-6.75073ZM269.0601,39.066H277.813l-4.37624-12.66379Z"/><path class="a" d="M33.201,4.48387a29.54034,29.54034,0,0,0-6.73525,58.33827V52.85l-6.92616-6.92616H13.26289a2.04521,2.04521,0,1,1-.00894-2.50261h3.783L9.40931,35.79358A2.04569,2.04569,0,1,1,11.188,34.033l3.51869,3.51868V33.29435l-4.27142-4.27142a2.04578,2.04578,0,1,1,1.781-1.75819l4.9927,4.99271.00028,7.79687,9.25647,9.25647V45.08558L22.06143,40.6812c-.03181.00146-.06313.00479-.0953.00479a2.04376,2.04376,0,1,1,2.00415-1.63519l4.99516,4.99525.00266,19.23959q1.469.20868,2.9816.27217V42.77294L15.01422,25.83748l.00132-7.15552a2.04528,2.04528,0,1,1,2.50261-.00564v6.12586l8.90745,8.90745V29.4848l-4.05-4.05a2.04565,2.04565,0,1,1,1.77692-1.76232l2.27311,2.27311V21.68774l-3.874-3.87094V13.60465a2.04528,2.04528,0,1,1,2.50261-.00583v3.17827l3.87272,3.87272.00132,15.56243,3.02148,3.02148V35.65037a2.0454,2.0454,0,1,1,2.50261,0V46.95953l3.0024-3.0024V31.273L31.958,25.77629l.00216-14.06471a2.04547,2.04547,0,1,1,2.50261.00362V24.74184L39.96,30.23913l-.00273.00273V33.69l2.98388-2.98388v-1.679l-5.50124-5.50124H37.4388v-.00113l-.00038-.00038.00038-.00038V18.84693a2.04528,2.04528,0,1,1,2.50261-.00573v3.64694l2.99976,2.99976V14.35081a2.04531,2.04531,0,1,1,2.50261-.00555l-.00085,17.39831-5.48564,5.48564v4.22531l2.18924-2.18922A2.04828,2.04828,0,1,1,43.945,41.00606l-9.49267,9.49269V63.55781q1.50985-.06225,2.97832-.2717L37.4294,51.779,48.43565,40.77275V18.23265a2.04547,2.04547,0,1,1,2.50261.00357v8.67594l2.25789-2.25788a2.0457,2.0457,0,1,1,1.75994,1.77924l-4.01783,4.01786v7.81877l4.29654-4.29656a2.04526,2.04526,0,1,1,1.77344,1.7658l-7.7267,7.7267h3.83132a2.04538,2.04538,0,1,1,.00047,2.50261h-6.3344l-6.8456,6.8456V62.82284A29.54036,29.54036,0,0,0,33.201,4.48387Z"/><path class="a" d="M307.92676,41.43359a10.11373,10.11373,0,0,0,1.01953,3.86816A7.64938,7.64938,0,0,0,311.082,47.8877a8.46364,8.46364,0,0,0,3.0127,1.44727,14.26182,14.26182,0,0,0,3.6543.4502,12.17731,12.17731,0,0,0,3.93848-.56934,7.46118,7.46118,0,0,0,2.7041-1.542,6.05079,6.05079,0,0,0,1.542-2.25391,7.40127,7.40127,0,0,0,.498-2.70508,5.34516,5.34516,0,0,0-.90137-3.22656,6.95755,6.95755,0,0,0-2.34863-2.0166,14.4079,14.4079,0,0,0-3.32129-1.25684q-1.875-.47461-3.84375-.92578-1.97021-.44971-3.84375-1.06738a12.07868,12.07868,0,0,1-3.32129-1.66113,8.01888,8.01888,0,0,1-2.34863-2.68066,8.53347,8.53347,0,0,1-.90137-4.15234,8.34127,8.34127,0,0,1,.73535-3.416,8.4967,8.4967,0,0,1,2.18262-2.94238,10.71769,10.71769,0,0,1,3.62988-2.04,15.29446,15.29446,0,0,1,5.03027-.75977,14.40712,14.40712,0,0,1,5.05273.80762,10.04974,10.04974,0,0,1,3.583,2.20605,9.08449,9.08449,0,0,1,2.13477,3.25,10.87762,10.87762,0,0,1,.71191,3.93848h-3.084a7.66608,7.66608,0,0,0-.68848-3.36914,6.33086,6.33086,0,0,0-1.874-2.32422,8.02007,8.02007,0,0,0-2.70508-1.3291,11.49689,11.49689,0,0,0-3.13086-.42676,11.02268,11.02268,0,0,0-4.15234.6875,7.30588,7.30588,0,0,0-2.68066,1.7793,6.01371,6.01371,0,0,0-1.377,2.41992,5.81383,5.81383,0,0,0-.1416,2.65723,4.62583,4.62583,0,0,0,1.32813,2.65723,8.37219,8.37219,0,0,0,2.5625,1.6377,19.27119,19.27119,0,0,0,3.3457,1.04395q1.8252.40283,3.72461.85352,1.897.45264,3.67773,1.06836a11.332,11.332,0,0,1,3.15527,1.66016,7.65548,7.65548,0,0,1,2.20605,2.68164,9.028,9.028,0,0,1,.83105,4.10449,8.86744,8.86744,0,0,1-3.27441,7.35449q-3.27393,2.60889-9.20508,2.60938a17.01727,17.01727,0,0,1-4.93555-.6875,10.91848,10.91848,0,0,1-3.93848-2.08789,9.58713,9.58713,0,0,1-2.58594-3.46387,11.80209,11.80209,0,0,1-.9248-4.86426Z"/><path class="a" d="M334.73633,34.60156a23.472,23.472,0,0,1,1.01953-7.02344,16.88074,16.88074,0,0,1,3.01367-5.71777,14.32229,14.32229,0,0,1,4.93457-3.86719,15.3927,15.3927,0,0,1,6.78516-1.42383,16.46175,16.46175,0,0,1,6.999,1.40039,14.15606,14.15606,0,0,1,5.03027,3.84375,16.63116,16.63116,0,0,1,3.03613,5.74121,23.70745,23.70745,0,0,1,1.02051,7.04688,23.06751,23.06751,0,0,1-1.02051,6.95117,16.90318,16.90318,0,0,1-3.0127,5.69434,14.211,14.211,0,0,1-4.98242,3.86719,17.57668,17.57668,0,0,1-13.85547,0,14.21977,14.21977,0,0,1-4.98242-3.86719,16.60183,16.60183,0,0,1-2.98926-5.69434A23.60126,23.60126,0,0,1,334.73633,34.60156Zm15.94336,15.18359a12.16145,12.16145,0,0,0,5.71777-1.25684,11.4049,11.4049,0,0,0,3.93848-3.3457,14.2703,14.2703,0,0,0,2.27734-4.83984,22.14591,22.14591,0,0,0,.73535-5.74121,21.48331,21.48331,0,0,0-.87793-6.38281,13.87621,13.87621,0,0,0-2.53809-4.81641,10.90928,10.90928,0,0,0-4.03418-3.03613,13.07,13.07,0,0,0-5.31445-1.04395,11.85326,11.85326,0,0,0-5.66992,1.28125,11.52361,11.52361,0,0,0-3.93848,3.39258,14.51133,14.51133,0,0,0-2.27734,4.86328,22.96659,22.96659,0,0,0,0,11.53027,14.23,14.23,0,0,0,2.27734,4.84082,11.16894,11.16894,0,0,0,3.93848,3.32129A12.44818,12.44818,0,0,0,350.67969,49.78516Z"/><path class="a" d="M397.70313,27.38867q-.99609-4.36523-3.70117-6.21582a12.28327,12.28327,0,0,0-7.07031-1.85059,10.3897,10.3897,0,0,0-8.99219,4.55469,14.65853,14.65853,0,0,0-2.13477,4.81641,23.49253,23.49253,0,0,0-.68848,5.76562,26.42559,26.42559,0,0,0,.59375,5.59863,14.84323,14.84323,0,0,0,1.96875,4.91113,10.4405,10.4405,0,0,0,3.70117,3.48828,11.629,11.629,0,0,0,5.83691,1.32813,10.76666,10.76666,0,0,0,3.98535-.71191,9.91531,9.91531,0,0,0,3.15527-1.96875,11.4852,11.4852,0,0,0,2.27832-2.96582,14.94115,14.94115,0,0,0,1.39941-3.749h3.36816a21.33529,21.33529,0,0,1-1.66016,4.6748,13.35839,13.35839,0,0,1-2.87012,3.86719,13.1195,13.1195,0,0,1-4.31836,2.63281,16.61041,16.61041,0,0,1-5.95508.97266,14.51469,14.51469,0,0,1-6.73828-1.44727,12.77367,12.77367,0,0,1-4.5791-3.91406,16.425,16.425,0,0,1-2.58594-5.71777,28.5629,28.5629,0,0,1-.80664-6.9043,25.01381,25.01381,0,0,1,1.21-8.30371,14.8276,14.8276,0,0,1,3.3457-5.57617,12.64056,12.64056,0,0,1,5.0293-3.13086,19.70228,19.70228,0,0,1,6.31152-.97363,16.60643,16.60643,0,0,1,4.86328.68848,11.96884,11.96884,0,0,1,3.98633,2.06445,11.18721,11.18721,0,0,1,2.8457,3.39258,14.26074,14.26074,0,0,1,1.543,4.67383Z"/><path class="a" d="M409.32715,51.63574V17.47168h3.22656V51.63574Z"/><path class="a" d="M418.72266,51.63574l13.42871-34.16406h3.65332l13.09668,34.16406h-3.32129L441.6416,40.91211H426.07715l-4.0332,10.72363Zm8.44629-13.47559H440.5498l-6.69043-17.93652Z"/><path class="a" d="M453.97852,51.63574V17.47168h3.22656V48.88379h18.31543v2.752Z"/><path class="a" d="M494.502,51.63574V17.47168h12.33691a18.676,18.676,0,0,1,5.125.61621,9.40775,9.40775,0,0,1,3.4873,1.75586,6.70412,6.70412,0,0,1,1.96973,2.72852,9.58878,9.58878,0,0,1,.61621,3.4873,9.106,9.106,0,0,1-.47461,3.1084,6.90647,6.90647,0,0,1-1.2334,2.18262,5.73929,5.73929,0,0,1-1.73242,1.376,7.23061,7.23061,0,0,1-2.0166.68848v.09473a7.71891,7.71891,0,0,1,5.291,2.7998,9.13738,9.13738,0,0,1,1.73242,5.69434,10.97868,10.97868,0,0,1-.83105,4.50781,7.68678,7.68678,0,0,1-2.30078,2.98926,9.2405,9.2405,0,0,1-3.53516,1.63672,19.097,19.097,0,0,1-4.48438.498Zm3.22656-19.0752h8.16113a17.75515,17.75515,0,0,0,4.22363-.42676,7.17194,7.17194,0,0,0,2.752-1.25781,4.64837,4.64837,0,0,0,1.49512-2.04,7.94037,7.94037,0,0,0,.4502-2.77637,6.41328,6.41328,0,0,0-.52148-2.72754,4.14634,4.14634,0,0,0-1.66113-1.80371,8.48717,8.48717,0,0,0-2.96582-.99609,27.473,27.473,0,0,0-4.48437-.30859h-7.44922Zm0,16.32324h8.209a39.01855,39.01855,0,0,0,4.626-.2373,8.5599,8.5599,0,0,0,3.251-.97266,4.6474,4.6474,0,0,0,1.92188-2.08789,8.4454,8.4454,0,0,0,.64063-3.582,7.1767,7.1767,0,0,0-.71191-3.44043,4.91858,4.91858,0,0,0-2.041-2.0166,9.50531,9.50531,0,0,0-3.17871-.97266,29.74878,29.74878,0,0,0-4.12793-.26172h-8.58887Z"/><path class="a" d="M526.625,51.63574V17.47168h22.72852v2.752h-19.502V32.56055h17.60449v2.752H529.85156V48.88379h19.97656v2.752Z"/><path class="a" d="M556.0918,51.63574V17.47168h22.72852v2.752h-19.502V32.56055h17.60449v2.752H559.31836V48.88379h19.97656v2.752Z"/></svg>